<?xml version="1.0" encoding="utf-8"?>
<!-- Generator: Adobe Illustrator 19.0.0, SVG Export Plug-In . SVG Version: 6.00 Build 0)  -->
<svg version="1.1" id="Capa_1" xmlns="http://www.w3.org/2000/svg" xmlns:xlink="http://www.w3.org/1999/xlink" x="0px" y="0px"
	 viewBox="0 0 42.5 42.6" style="enable-background:new 0 0 42.5 42.6;" xml:space="preserve">
<style type="text/css">
	
		.st0{fill-rule:evenodd;clip-rule:evenodd;fill:#FFFFFF;stroke:#4ABD24;stroke-width:2;stroke-linecap:round;stroke-linejoin:round;stroke-miterlimit:10;}
	.st1{fill-rule:evenodd;clip-rule:evenodd;fill:#4ABD24;}
</style>
<g>
	<path class="st0" d="M1.5,21.4c0-10.9,8.9-19.8,19.8-19.8s19.8,8.9,19.8,19.8s-8.9,19.8-19.8,19.8S1.5,32.3,1.5,21.4z"/>
	<g>
		<path class="st1" d="M32.6,18.9c0,0.2-0.2,0.5-0.5,0.6c-1.6,0.5-3.3,1-4.9,1.5c-0.1,0-0.2,0-0.3,0l-9.9-5.1
			c-0.3-0.2-0.4-0.3-0.2-0.7l1.7-3.3c0.1-0.3,0.3-0.4,0.6-0.2l13.3,6.9C32.5,18.6,32.6,18.7,32.6,18.9z"/>
		<path class="st1" d="M30.3,20.8c-0.4,0.9-0.8,1.7-1.3,2.5c-0.1,0.2-0.3,0.3-0.6,0.1l-3.8-2L23,20.6l-0.3,0.5l-2.3,3.3
			c-0.1,0.1-0.1,0.2,0,0.4c0.3,0.7,0.1,1.5-0.5,2c-0.6,0.5-1.5,0.5-2.1,0c-0.1-0.1-0.2-0.1-0.4-0.1c-0.7,0.1-1.5,0.3-2.2,0.4
			c-0.2,0-0.3,0.1-0.3,0.3c0,0.8,0,1.7,0,2.5c0,0.5-0.2,0.8-0.6,0.8c-0.5,0.1-1,0-1.6,0.1v-9c0.1,0,0.1,0,0.2,0c0.4,0,0.8,0,1.3,0
			c0.5,0.1,0.8,0.4,0.8,0.9v2.4v0.4l0.9-0.1l1.1-0.2c0.1,0,0.2-0.1,0.2-0.2c0.2-0.8,0.9-1.3,1.8-1.3c0.1,0,0.2,0,0.2-0.1l2.5-3.6
			l0-0.1l-1-0.5l-4.2-2.2c-0.5-0.2-0.5-0.4-0.3-0.8l0.1-0.2l1.5,0.8l9.3,4.8c0.1,0,0.2,0.1,0.3,0c0.9-0.3,1.9-0.6,2.8-0.9L30.3,20.8
			z"/>
		<polygon class="st1" points="32.8,21.1 31.6,23.5 30.1,22.8 31.3,20.4 		"/>
	</g>
</g>
</svg>
