<?xml version="1.0" encoding="utf-8"?>
<!-- Generator: Adobe Illustrator 19.0.0, SVG Export Plug-In . SVG Version: 6.00 Build 0)  -->
<svg version="1.1" id="Capa_1" xmlns="http://www.w3.org/2000/svg" xmlns:xlink="http://www.w3.org/1999/xlink" x="0px" y="0px"
	 viewBox="0 0 44.6 44.5" style="enable-background:new 0 0 44.6 44.5;" xml:space="preserve">
<style type="text/css">
	
		.st0{fill-rule:evenodd;clip-rule:evenodd;fill:#FFFFFF;stroke:#4ABD24;stroke-width:2;stroke-linecap:round;stroke-linejoin:round;stroke-miterlimit:10;}
	
		.st1{fill-rule:evenodd;clip-rule:evenodd;fill:#DDE7ED;stroke:#4ABD24;stroke-linecap:round;stroke-linejoin:round;stroke-miterlimit:10;}
	
		.st2{fill-rule:evenodd;clip-rule:evenodd;fill:none;stroke:#4ABD24;stroke-linecap:round;stroke-linejoin:round;stroke-miterlimit:10;}
	.st3{fill-rule:evenodd;clip-rule:evenodd;fill:#4ABD24;}
</style>
<g>
	<circle class="st0" cx="22.3" cy="22.4" r="20.9"/>
	<g>
		<rect x="11.7" y="15.4" class="st1" width="21.2" height="12.9"/>
		<rect x="11.7" y="26" class="st2" width="21.2" height="0.9"/>
		<path class="st3" d="M21,32.3c0,0.9,0.7,1.6,1.6,1.6s1.6-0.7,1.6-1.6c0-0.9-0.7-1.6-1.6-1.6S21,31.4,21,32.3z M21.9,32.3
			c0-0.4,0.3-0.7,0.7-0.7c0.4,0,0.7,0.3,0.7,0.7c0,0.4-0.3,0.7-0.7,0.7C22.2,33,21.9,32.7,21.9,32.3z"/>
		<rect x="21.8" y="28.3" class="st3" width="1.4" height="3.2"/>
		<rect x="10.3" y="15.4" class="st3" width="1.4" height="1.8"/>
		<rect x="32.9" y="15.4" class="st3" width="1.4" height="1.8"/>
	</g>
</g>
</svg>
