<?xml version="1.0" encoding="utf-8"?>
<!-- Generator: Adobe Illustrator 19.0.0, SVG Export Plug-In . SVG Version: 6.00 Build 0)  -->
<svg version="1.1" id="Capa_1" xmlns="http://www.w3.org/2000/svg" xmlns:xlink="http://www.w3.org/1999/xlink" x="0px" y="0px"
	 viewBox="0 0 42.6 42" style="enable-background:new 0 0 42.6 42;" xml:space="preserve">
<style type="text/css">
	
		.st0{fill-rule:evenodd;clip-rule:evenodd;fill:#FFFFFF;stroke:#4ABD24;stroke-width:2;stroke-linecap:round;stroke-linejoin:round;stroke-miterlimit:10;}
	.st1{fill-rule:evenodd;clip-rule:evenodd;fill:none;}
	.st2{fill-rule:evenodd;clip-rule:evenodd;fill:#4ABD24;}
	.st3{fill-rule:evenodd;clip-rule:evenodd;fill:#DDE7ED;}
</style>
<g>
	<path class="st0" d="M1.4,21.1c0-10.8,8.9-19.5,20-19.5s20,8.7,20,19.5s-9,19.5-20,19.5S1.4,31.9,1.4,21.1z"/>
	<g>
		<path class="st1" d="M12.4,23.7c0-0.4,0.2-0.9-0.6-1c-0.6,0-0.7,0.3-0.6,0.8c0.1,0.4-0.2,1.1,0.6,1.1
			C12.5,24.6,12.4,24.1,12.4,23.7z M14.3,18.8c-0.4-0.2-0.7-0.5-1.1-0.7c-0.3-0.2-0.6,0-0.7,0.3c-0.3,0.7-0.6,1.4-0.9,2.2
			c-0.1,0.3,0,0.6,0.3,0.7s0.7,0.4,0.9,0.1C13.3,20.6,13.7,19.7,14.3,18.8z M15.3,17.9c0.7-0.3,1.3-0.7,2-1c0.6-0.3,0.6-0.5,0.4-1.1
			c-0.8-1.6-0.7-1.6-2.2-0.6c-0.3,0.2-0.7,0.5-0.9,0.7c-0.2,0.2-0.7,0.4-0.4,0.8C14.5,17.2,14.7,17.7,15.3,17.9z M20.6,13.5
			c-0.1,0-0.6,0-1,0.1c-0.4,0.1-1,0.1-0.9,0.7c0.1,0.7-0.2,1.7,0.5,2c0.8,0.3,1.8,0.4,2.6,0.2c0.5-0.1,0.3-1,0.4-1.5
			C22.4,13.4,22.4,13.4,20.6,13.5z M29.6,24.7c0.4,0,0.7,0,1.1,0.1c1,0.2,1.1-0.3,1-1c-0.1-0.7,0.3-1.5-1-1.4
			c-0.8,0.1-1.7,0.2-2.5,0.1c-1-0.1-1.2,0.4-1.3,1.3c0,0.9,0.6,0.7,1.2,0.8C28.6,24.6,29.1,24.6,29.6,24.7z M24.6,14.1
			c-0.4,0-0.5,0.2-0.7,0.5c-0.2,0.5-0.4,1-0.7,1.5c-0.4,0.6-0.1,0.9,0.4,1.3c1.7,1.1,1.7,1.1,3-0.5l0.6-0.7c0.1-0.2,0.3-0.4,0.1-0.6
			C26.5,14.8,25.6,14.4,24.6,14.1z M31,20c-0.3-0.5-0.6-1.1-0.9-1.7c-0.9-1.3-0.9-1.3-2.2-0.5c-0.5,0.3-1,0.7-1.5,1
			c-0.4,0.3-0.5,0.5-0.3,1c0.9,1.9,0.9,1.9,3,1.2c0.5-0.2,0.9-0.3,1.4-0.5C30.8,20.5,31,20.4,31,20z M19.8,28.7c2.3-0.1,4-1.1,5-3
			c1-1.9,0.8-3.8-0.5-5.5c-1.4-1.7-3.2-2.3-5.4-2c-0.9,0.1-1.2,0.5-0.6,1.3c0.3,0.4,0.5,0.9,0.8,1.3c0.2,0.4,0,0.6-0.3,0.8
			c-0.4,0.2-0.6,0.1-0.8-0.2c-0.2-0.5-0.5-0.9-0.8-1.4c-0.4-0.8-0.8-0.9-1.4-0.2c-1.5,1.7-1.9,3.6-1,5.7
			C15.8,27.6,17.5,28.6,19.8,28.7z M10.3,21c0-3.9,0-7.8,0-11.7c0-0.5,0.1-0.7,0.7-0.7c7,0,14,0,21,0c0.6,0,0.6,0.2,0.6,0.6
			c0,7.8,0,15.6,0,23.4c0,0.5-0.1,0.6-0.6,0.6c-7,0-14,0-21,0c-0.6,0-0.7-0.2-0.7-0.7C10.3,28.7,10.3,24.8,10.3,21z"/>
		<path class="st2" d="M19.8,28.7c-2.3-0.1-4-1.1-5-3.3c-0.9-2.1-0.5-3.9,1-5.7c0.6-0.7,1-0.6,1.4,0.2c0.2,0.5,0.5,0.9,0.8,1.4
			c0.2,0.3,0.4,0.5,0.8,0.2c0.3-0.2,0.5-0.4,0.3-0.8c-0.3-0.4-0.5-0.9-0.8-1.3c-0.6-0.8-0.3-1.1,0.6-1.3c2.2-0.3,4,0.3,5.4,2
			c1.3,1.7,1.5,3.6,0.5,5.5C23.8,27.6,22.1,28.6,19.8,28.7z"/>
		<path class="st3" d="M31,20c0,0.4-0.2,0.5-0.5,0.6c-0.4,0.2-0.9,0.3-1.4,0.5c-2.1,0.7-2.1,0.7-3-1.2c-0.2-0.5-0.1-0.7,0.3-1
			c0.5-0.3,1-0.7,1.5-1c1.3-0.9,1.3-0.9,2.2,0.5C30.4,18.9,30.7,19.5,31,20z"/>
		<path class="st2" d="M24.6,14.1c1,0.3,2,0.8,2.8,1.5c0.3,0.2,0.1,0.4-0.1,0.6l-0.6,0.7c-1.3,1.6-1.3,1.6-3,0.5
			c-0.6-0.4-0.8-0.7-0.4-1.3c0.3-0.5,0.5-1,0.7-1.5C24,14.3,24.2,14.1,24.6,14.1z"/>
		<path class="st3" d="M29.6,24.7c-0.5,0-1.1,0-1.6-0.1c-0.5-0.1-1.2,0.1-1.2-0.8c0-0.9,0.3-1.3,1.3-1.3c0.8,0,1.7,0,2.5-0.1
			c1.3-0.2,1,0.7,1,1.4c0.1,0.8-0.1,1.3-1,1C30.4,24.7,30,24.7,29.6,24.7z"/>
		<path class="st2" d="M20.6,13.5c1.8,0,1.8,0,1.5,1.5c-0.1,0.5,0.2,1.4-0.4,1.5c-0.8,0.2-1.9,0.1-2.6-0.2c-0.7-0.3-0.4-1.3-0.5-2
			c-0.1-0.6,0.6-0.6,0.9-0.7C20,13.5,20.5,13.5,20.6,13.5z"/>
		<path class="st2" d="M15.3,17.9c-0.6-0.2-0.8-0.7-1.2-1.1c-0.4-0.4,0.1-0.6,0.4-0.8c0.3-0.3,0.6-0.5,0.9-0.7c1.5-1,1.4-1,2.2,0.6
			c0.3,0.6,0.2,0.8-0.4,1.1C16.6,17.2,16,17.6,15.3,17.9z"/>
		<path class="st2" d="M14.3,18.8c-0.6,0.9-1,1.8-1.6,2.5c-0.2,0.3-0.6,0-0.9-0.1s-0.4-0.4-0.3-0.7c0.3-0.7,0.6-1.5,0.9-2.2
			c0.1-0.3,0.3-0.5,0.7-0.3C13.6,18.3,13.9,18.6,14.3,18.8z"/>
		<path class="st2" d="M12.4,23.7c0,0.4,0.1,1-0.6,0.9c-0.7-0.1-0.5-0.7-0.6-1.1c-0.1-0.5,0-0.8,0.6-0.8
			C12.6,22.7,12.4,23.3,12.4,23.7z"/>
	</g>
</g>
</svg>
