<?xml version="1.0" encoding="utf-8"?>
<!-- Generator: Adobe Illustrator 19.0.0, SVG Export Plug-In . SVG Version: 6.00 Build 0)  -->
<svg version="1.1" id="Capa_1" xmlns="http://www.w3.org/2000/svg" xmlns:xlink="http://www.w3.org/1999/xlink" x="0px" y="0px"
	 viewBox="-277 400.9 40.3 40" style="enable-background:new -277 400.9 40.3 40;" xml:space="preserve">
<style type="text/css">
	.st0{fill:#FFFFFF;stroke:#4ABD24;stroke-width:2;stroke-linecap:round;stroke-linejoin:round;stroke-miterlimit:10;}
	.st1{fill:#DDE7ED;}
	.st2{fill:#4ABD24;}
</style>
<g>
	<circle class="st0" cx="-256.8" cy="421" r="19.3"/>
	<g>
		<path class="st1" d="M-250.3,418.5c-0.2,0-0.3-0.1-0.4-0.1c-1,0-1.9-0.2-2.7-0.9c-0.6-0.5-1.3-1-1.9-1.5c-1.8-1.4-4-0.8-5.9-0.9
			c-0.1,0.2-0.1,0.2-0.1,0.2v11.1c0,0.3,0.1,0.5,0.5,0.5c0.9,0,1.9,0.1,2.8,0c1.3-0.1,2.4-0.6,3.4-1.6s2.3-1.9,3.9-1.8
			c0.1,0,0.3,0,0.4-0.1C-250.3,423.4-250.3,418.5-250.3,418.5z M-262.2,421c0-1.9,0-3.8,0-5.7c0-1,0.2-1.2,1.1-1.2
			c1.6,0.1,3.2-0.3,4.7,0.4c0.8,0.4,1.6,0.8,2.3,1.4c1.1,1,2.3,1.8,3.9,1.7c0.6-0.1,0.8,0.2,0.8,0.8c0,1.7,0,3.5,0,5.2
			c0,0.6-0.2,0.8-0.8,0.8c-1.6-0.1-2.8,0.6-4,1.7s-2.6,1.7-4.2,1.7c-1,0-1.9,0-2.9,0c-0.8,0-1-0.2-1-1
			C-262.2,424.9-262.2,423-262.2,421L-262.2,421z"/>
		<g>
			<path class="st2" d="M-248.4,421.7v-1.5c0.8-0.2,2.2,0.7,2.6,1.4c0.4,0.9,0.5,1.9,0.3,2.9c-0.1,0.5-0.1,1.1-0.1,1.6
				s-0.1,0.9-0.7,0.9c-0.6,0-0.9-0.3-0.9-0.8c0-0.7,0.1-1.5,0.2-2.2C-246.9,422.9-247.1,422.1-248.4,421.7z"/>
			<rect x="-268.1" y="417" class="st2" width="4.5" height="1.5"/>
			<polygon class="st2" points="-263.6,423.5 -263.6,425 -265.9,425 -268.1,425 -268.1,423.5 			"/>
			<path class="st2" d="M-260,421.2v4.1c0,0.3,0,0.7,0.4,0.7s0.5-0.3,0.5-0.6c0-2.7,0-5.4,0-8.1c0-0.3,0-0.7-0.5-0.7
				s-0.5,0.4-0.5,0.7v3.9H-260z M-250.3,418.5v5c-0.2,0-0.3,0.1-0.4,0.1c-1.6-0.1-2.8,0.7-3.9,1.8c-1,1-2.1,1.5-3.4,1.6
				c-0.9,0.1-1.9,0-2.8,0c-0.3,0-0.5-0.1-0.5-0.5v-11.1c0,0,0-0.1,0.1-0.2c2,0.1,4.1-0.5,5.9,0.9c0.6,0.5,1.3,1,1.9,1.5
				c0.8,0.7,1.7,0.9,2.7,0.9C-250.6,418.5-250.5,418.5-250.3,418.5z"/>
		</g>
		<path class="st1" d="M-260,421.2v-4c0-0.3,0-0.7,0.5-0.7s0.5,0.4,0.5,0.7c0,2.7,0,5.4,0,8.1c0,0.4-0.1,0.6-0.5,0.6
			c-0.5,0-0.5-0.3-0.5-0.6V421.2z"/>
	</g>
</g>
</svg>
