<?xml version="1.0" encoding="utf-8"?>
<!-- Generator: Adobe Illustrator 19.0.0, SVG Export Plug-In . SVG Version: 6.00 Build 0)  -->
<svg version="1.1" id="Capa_1" xmlns="http://www.w3.org/2000/svg" xmlns:xlink="http://www.w3.org/1999/xlink" x="0px" y="0px"
	 viewBox="0 0 41.5 41.7" style="enable-background:new 0 0 41.5 41.7;" xml:space="preserve">
<style type="text/css">
	
		.st0{fill-rule:evenodd;clip-rule:evenodd;fill:#FFFFFF;stroke:#4ABD24;stroke-width:2;stroke-linecap:round;stroke-linejoin:round;stroke-miterlimit:10;}
	.st1{fill-rule:evenodd;clip-rule:evenodd;fill:#F6F6F6;}
	.st2{opacity:0.2;fill-rule:evenodd;clip-rule:evenodd;fill:#4ABD24;}
	.st3{fill-rule:evenodd;clip-rule:evenodd;fill:#4ABD24;}
	.st4{fill-rule:evenodd;clip-rule:evenodd;fill:#FFFFFF;}
</style>
<g>
	<circle class="st0" cx="20.8" cy="20.9" r="19.4"/>
	<g>
		<g>
			<g>
				<path class="st1" d="M19.3,13c-4.1,0.4-5.9,5-4.1,7.9c0.8,1.2,1.4,2.5,2.1,3.8l0.4-0.1c-0.5-1.3-1-2.5-1.4-3.9
					c-0.3-0.9-0.5-1.9-0.5-2.8C15.9,15.5,17.3,14,19.3,13z M20.2,29.2h-0.6c-2.8,0-2.7,0-3.5-2.6c-0.6-1.9-1.5-3.8-2.3-5.6
					c-2-4.3,1.1-8.7,4.8-9.4c4.5-0.8,8,1.8,8.6,6.3c0.2,1.1-0.5,2.4-0.9,3.6c-0.8,2-1.8,4-2.4,6.1c-0.4,1.3-0.8,1.8-2.1,1.7
					C21.3,29.1,20.7,29.2,20.2,29.2z"/>
				<path class="st2" d="M15,17.6c0-3.2,2.6-5.7,5.8-5.7s5.8,2.6,5.8,5.7c0,3.1-2.6,5.7-5.8,5.7S15,20.7,15,17.6z"/>
				<path class="st3" d="M17.7,25.6h-1c0-0.1-0.1-0.3-0.1-0.4c-0.4-0.8-0.8-1.5-1.2-2.3c-0.6-1-1.3-1.9-1.8-3
					c-1-2.2-0.5-4.3,0.7-6.2c1.5-2.4,3.9-3.4,6.8-3.4c2.8,0,4.8,1.3,6.2,3.5c1.3,2,1.7,4.3,0.5,6.5c-0.5,0.9-1.1,1.7-1.7,2.6
					c-0.5,0.8-0.9,1.7-1.4,2.7h-0.8c0.2-1.5,0.9-2.6,1.8-3.7c1.1-1.3,2-2.8,1.8-4.6c-0.3-2.7-2.2-5.1-5.1-5.9
					c-2.5-0.6-4.6,0.2-6.4,2c-1.8,1.8-2.3,4-1.3,6.4c0.4,1,1.2,1.9,1.9,2.8C17.1,23.4,17.5,24.4,17.7,25.6z"/>
				<path class="st3" d="M17.7,27.6c0,0.8,0,1.4,0,2.1c0,0.5,0.3,0.8,0.8,0.8c1.5,0,3,0,4.5,0c0.3,0,0.7-0.4,0.8-0.7
					c0.1-0.7,0-1.4,0-2.1H17.7z M16.7,26.6h8.1c0,1.2,0.1,2.3,0,3.4c0,0.8-0.8,1.4-1.7,1.4c-1.6,0-3.2,0-4.8,0
					c-0.9,0-1.5-0.6-1.6-1.5C16.7,28.9,16.7,27.8,16.7,26.6z"/>
				<path class="st3" d="M21.7,18.3c0-0.5-0.3-0.8-0.9-0.8c-0.6,0-0.9,0.3-0.9,0.8c0,0.4,0.2,0.9,0.8,0.9
					C21.2,19.3,21.7,18.8,21.7,18.3z M20.3,20.2c-1.2-0.6-1.6-1.3-1.4-2.3c0.2-1,0.9-1.4,2-1.4c0.7,0,1.5,0.6,1.7,1.3
					c0.3,1.1-0.2,1.9-1.4,2.4v5.3h-0.9V20.2z"/>
				<path class="st1" d="M17.7,27.6h6.1c0,0.7,0.1,1.5,0,2.1c0,0.3-0.5,0.6-0.8,0.7c-1.5,0.1-3,0-4.5,0c-0.5,0-0.8-0.3-0.8-0.8
					C17.7,29.1,17.7,28.4,17.7,27.6z"/>
				<path class="st4" d="M21.7,18.3c0,0.5-0.4,0.9-0.9,0.9c-0.6,0-0.8-0.5-0.8-0.9c0-0.5,0.3-0.8,0.9-0.8
					C21.4,17.5,21.6,17.8,21.7,18.3z"/>
			</g>
		</g>
	</g>
</g>
</svg>
