<?xml version="1.0" encoding="utf-8"?>
<!-- Generator: Adobe Illustrator 19.0.0, SVG Export Plug-In . SVG Version: 6.00 Build 0)  -->
<svg version="1.1" id="Capa_1" xmlns="http://www.w3.org/2000/svg" xmlns:xlink="http://www.w3.org/1999/xlink" x="0px" y="0px"
	 viewBox="0 0 41.9 41.7" style="enable-background:new 0 0 41.9 41.7;" xml:space="preserve">
<style type="text/css">
	
		.st0{fill-rule:evenodd;clip-rule:evenodd;fill:#FFFFFF;stroke:#4ABD24;stroke-width:2;stroke-linecap:round;stroke-linejoin:round;stroke-miterlimit:10;}
	.st1{fill-rule:evenodd;clip-rule:evenodd;fill:#4ABD24;}
	
		.st2{fill-rule:evenodd;clip-rule:evenodd;fill:none;stroke:#4ABD24;stroke-width:2;stroke-linecap:round;stroke-linejoin:round;stroke-miterlimit:10;}
</style>
<g>
	<path class="st0" d="M1.2,20.8C1.2,9.9,10,1,21,1s19.8,8.9,19.8,19.8S31.9,40.6,21,40.6S1.2,31.7,1.2,20.8z"/>
	<g>
		<g>
			<path class="st1" d="M11.8,19.4c-0.2-0.3-0.6-0.6-1-0.6s-0.8,0.2-1,0.6H9.7v0.5v4v2.4h2.9h1.1h9.9v-2.9v-3.3v-3.9v0
				c0-0.6-0.5-1.1-1.1-1.1c-0.6,0-1.1,0.5-1.1,1.1v0v3.9h-0.6v-6.4v-0.3h0c-0.1-0.5-0.6-0.8-1.1-0.8c-0.5,0-0.9,0.3-1.1,0.8h0v0.3
				v6.4h-0.9v-7.7v0c0-0.6-0.5-1.1-1.1-1.1s-1.1,0.5-1.1,1.1v0v7.7h-0.7v-5.2v0c0-0.6-0.5-1-1.1-1c-0.6,0-1.1,0.5-1.1,1v0v5.2v3.8
				h-0.6v-4v-0.5H11.8z"/>
			<path class="st1" d="M9.7,26.3v0.9c0,0,0,0.5,0.3,0.7l2.9,2.1L13,31h9.6l1.1-4.4v-0.5L9.7,26.3z"/>
		</g>
		<path class="st2" d="M24.5,11.4c0,0,6.3,6,1.7,12"/>
		<path class="st2" d="M28,11.4c0,0,6.3,6,1.7,12"/>
	</g>
</g>
</svg>
