<?xml version="1.0" encoding="utf-8"?>
<!-- Generator: Adobe Illustrator 19.0.0, SVG Export Plug-In . SVG Version: 6.00 Build 0)  -->
<svg version="1.1" id="Capa_1" xmlns="http://www.w3.org/2000/svg" xmlns:xlink="http://www.w3.org/1999/xlink" x="0px" y="0px"
	 viewBox="0 0 44.5 44.2" style="enable-background:new 0 0 44.5 44.2;" xml:space="preserve">
<style type="text/css">
	
		.st0{fill-rule:evenodd;clip-rule:evenodd;fill:#FFFFFF;stroke:#4ABD24;stroke-width:2;stroke-linecap:round;stroke-linejoin:round;stroke-miterlimit:10;}
	.st1{fill-rule:evenodd;clip-rule:evenodd;fill:#FFFFFF;}
	.st2{fill-rule:evenodd;clip-rule:evenodd;fill:#4ABD24;}
	.st3{fill-rule:evenodd;clip-rule:evenodd;fill:#DDE7ED;}
</style>
<g>
	<circle class="st0" cx="22.4" cy="22.1" r="20.9"/>
	<g>
		<path class="st1" d="M11.3,15.1v14.1h7.2v1.3c-2.4,0.4-2.4,0.4-2,1.4h11.3c0.3-2.2-1.6-0.7-2.2-1.6l0.1-1.1h8.1V15.1H11.3z
			 M34.5,32.9H9.9V13.5h24.6V32.9z"/>
		<path class="st2" d="M20.2,29.4v0.4h3.6v-0.4H20.2z M12.8,27.6h19.3V16.6H12.8V27.6z M11.3,15.1h22.3v14.1h-8.1l-0.1,1.1
			c0.6,0.9,2.5-0.6,2.2,1.6H16.5c-0.3-1-0.3-1,2-1.4v-1.3h-7.2V15.1z"/>
		<rect x="12.8" y="16.6" class="st3" width="19.3" height="10.9"/>
		<rect x="20.2" y="29.4" class="st1" width="3.6" height="0.4"/>
	</g>
</g>
</svg>
