<?xml version="1.0" encoding="utf-8"?>
<!-- Generator: Adobe Illustrator 19.0.0, SVG Export Plug-In . SVG Version: 6.00 Build 0)  -->
<svg version="1.1" id="Capa_1" xmlns="http://www.w3.org/2000/svg" xmlns:xlink="http://www.w3.org/1999/xlink" x="0px" y="0px"
	 viewBox="-277 401.3 39.8 39.6" style="enable-background:new -277 401.3 39.8 39.6;" xml:space="preserve">
<style type="text/css">
	.st0{fill:#FFFFFF;stroke:#4ABD24;stroke-linecap:round;stroke-linejoin:round;stroke-miterlimit:10;}
	.st1{fill:#4ABD24;}
	.st2{fill:#FFFFFF;}
	.st3{fill:#FFFFFF;stroke:#4ABD24;stroke-width:2;stroke-linecap:round;stroke-linejoin:round;stroke-miterlimit:10;}
</style>
<g>
	<circle class="st0" cx="-257" cy="421" r="19.3"/>
	<g>
		<path class="st1" d="M-255.6,421.2c0-0.9-0.6-1.5-1.5-1.5c-0.8,0-1.6,0.8-1.6,1.6c0,0.8,0.8,1.5,1.6,1.5
			C-256.2,422.7-255.6,422.1-255.6,421.2z M-257.1,423.6c-1.4,0.1-2.5-1.2-2.5-2.4c0-1.4,1-2.5,2.5-2.5c1.4,0,2.5,1,2.5,2.4
			S-255.6,423.8-257.1,423.6z"/>
		<path class="st1" d="M-263,426.1l0.4,2.2c0.9-0.3,1.3-1,1.6-1.6c0.4-1,0.9-1.9,1.3-3l0.8,0.5c-0.5,1.1-0.9,2.2-1.4,3.3
			c-0.4,0.8-0.9,1.4-1.7,1.8c-0.6,0.3-1-0.1-1.3-0.5c-0.2-0.3-0.3-0.6-0.4-0.9C-264.1,426.7-264,426.6-263,426.1z"/>
		<path class="st1" d="M-253.5,429.5c-0.1-2.2-2.1-3.1-2.6-4.9c0.7-0.5,0.7-0.4,1.2,0.3c0.5,0.8,1.2,1.6,1.8,2.4
			c0.5,0.7,0.7,1.4,0.5,2.2c0,0.3-0.3,0.6-0.6,0.7c-0.8,0.3-1.6,0.2-2.3-0.3c-0.3-0.2-0.3-0.7-0.4-1.1L-253.5,429.5z"/>
		<path class="st1" d="M-258.8,418.2c-0.9-1.3-1.7-2.5-2.5-3.8c-0.2-0.3-0.2-0.7-0.3-1c0-0.8,0.3-1.2,1.1-1.2c0.4,0,0.8,0,1.2,0.1
			c0.9,0.3,1,0.4,0.8,1.4l-2.1-0.7c-0.1,1.3,0.5,2,1.1,2.8l1.6,2L-258.8,418.2z"/>
		<path class="st1" d="M-260.5,420.4l-0.1,0.7c-1.3,0.1-2.6,0.3-3.8,0.4c-0.8,0-1.7-0.2-2.3-0.8c-0.1-0.1-0.2-0.5-0.1-0.7
			c0.4-0.6,0.8-1.2,1.3-1.7c0.6-0.6,0.9,0.2,1.1,0.3l-1.6,1.6C-264.1,421-262.3,420-260.5,420.4z"/>
		<path class="st1" d="M-265.1,424.7c1.9-0.2,2.9-2,4.7-2.6l0.3,0.8c-1.2,0.8-2.3,1.6-3.4,2.3c-0.5,0.3-1.1,0.4-1.6,0.4
			c-0.8,0-1-0.2-1-0.9c0-0.4,0-0.9,0.1-1.3c0.3-1,0.4-1,1.4-0.9l-0.6,2L-265.1,424.7z"/>
		<path class="st1" d="M-256.1,417.8l-1-0.1c0.3-1.8-0.6-3.5,0-5.2c0.3-1,0.9-1.3,1.8-0.8c0.2,0.1,0.4,0.3,0.6,0.4
			c1,0.7,1,1.1,0.3,2c-0.3-0.4-0.5-0.9-0.9-1.2c-0.6-0.6-1-0.4-1,0.4c0,0.9,0.1,1.7,0.1,2.6C-256.2,416.5-256.2,417.1-256.1,417.8z"
			/>
		<path class="st1" d="M-252,427.1l2.1-0.5c-0.3-1-1.1-1.3-1.8-1.5l-2.9-1.3l0.5-0.8c1,0.4,2.1,0.8,3,1.3c0.9,0.4,1.7,1,2,2
			c0.1,0.2,0,0.6-0.2,0.7c-0.4,0.3-0.8,0.6-1.3,0.8C-251.3,428.2-251.5,428-252,427.1z"/>
		<path class="st1" d="M-259.7,428.5l1.6,1.6c0.9-1.9-0.2-3.7,0.3-5.5l0.6,0.1c0.1,1,0.2,2,0.4,2.9c0.2,0.9,0,1.8-0.4,2.6
			c-0.3,0.7-0.8,0.9-1.5,0.5c-0.4-0.2-0.8-0.5-1.1-0.8C-260.4,429.2-260.4,429.2-259.7,428.5z"/>
		<path class="st1" d="M-262.1,415.3l-2.1,0.5c0.4,1,1.1,1.4,1.9,1.7l2.8,1.1l-0.6,0.8l-3-1.4c-0.8-0.4-1.7-0.8-2-1.8
			c-0.2-0.5,0-0.8,0.4-1c0.4-0.3,0.8-0.5,1.3-0.6C-262.5,414.3-262.4,414.4-262.1,415.3z"/>
		<path class="st1" d="M-253.6,422.2l0.2-1c1.3,0.2,2.6-0.6,3.8,0.7L-253.6,422.2z"/>
		<path class="st1" d="M-254.6,418.7l-0.6-0.6c0.5-0.9,1.4-1.5,1.8-2.4C-252.9,417-253.7,417.7-254.6,418.7z"/>
		<path class="st1" d="M-252.4,419.6l-1.2,0.7l-0.4-0.8C-252.8,418.5-252.6,418.8-252.4,419.6z"/>
		<path class="st2" d="M-255.6,421.2c0,0.9-0.6,1.5-1.5,1.5c-0.8,0-1.6-0.7-1.6-1.5c0-0.8,0.8-1.5,1.6-1.6
			C-256.2,419.7-255.6,420.3-255.6,421.2z"/>
		<g>
			<path class="st1" d="M-253.8,422.7c1.3,0.8,2.6,1.5,3.9,2.3c0.3,0.2,0.5,0.5,0.7,0.8c0.4,0.7,0.2,1.2-0.5,1.5
				c-0.4,0.2-0.8,0.4-1.1,0.4c-1,0.2-1.1,0.1-1.3-0.9l2.2-0.3c-0.4-1.2-1.3-1.6-2.2-2l-2.2-1.1L-253.8,422.7z"/>
			<path class="st1" d="M-253.3,420l-0.3-0.7c1.1-0.7,2.1-1.4,3.3-2c0.7-0.4,1.6-0.6,2.4-0.3c0.2,0.1,0.4,0.4,0.4,0.6
				c-0.1,0.7-0.2,1.4-0.4,2.1c-0.3,0.8-0.8,0.2-1.1,0.2l0.8-2.1C-250.4,417.9-251.5,419.6-253.3,420z"/>
			<path class="st1" d="M-251,414.2c-1.7,1-1.7,3.1-3.1,4.3l-0.6-0.6c0.7-1.2,1.3-2.4,2.1-3.5c0.3-0.4,0.8-0.8,1.3-1.1
				c0.6-0.4,1-0.3,1.3,0.4c0.2,0.4,0.4,0.8,0.4,1.2c0.2,1,0.1,1.1-0.8,1.3l-0.3-2H-251z"/>
			<path class="st1" d="M-249.7,423.8l1.7-1.4c-0.8-0.7-1.6-0.7-2.5-0.6l-3,0.2l0.2-1l3.3-0.1c0.9,0,1.8,0,2.6,0.7
				c0.4,0.4,0.3,0.7,0.1,1.1s-0.6,0.8-0.9,1.1C-248.9,424.5-249,424.5-249.7,423.8z"/>
		</g>
	</g>
</g>
<g>
	<circle class="st3" cx="-257" cy="421" r="19.3"/>
	<g>
		<path class="st1" d="M-255.6,421.2c0-0.9-0.6-1.5-1.5-1.5c-0.8,0-1.6,0.8-1.6,1.6c0,0.8,0.8,1.5,1.6,1.5
			C-256.2,422.7-255.6,422.1-255.6,421.2z M-257.1,423.6c-1.4,0.1-2.5-1.2-2.5-2.4c0-1.4,1-2.5,2.5-2.5c1.4,0,2.5,1,2.5,2.4
			S-255.6,423.8-257.1,423.6z"/>
		<path class="st1" d="M-263,426.1l0.4,2.2c0.9-0.3,1.3-1,1.6-1.6c0.4-1,0.9-1.9,1.3-3l0.8,0.5c-0.5,1.1-0.9,2.2-1.4,3.3
			c-0.4,0.8-0.9,1.4-1.7,1.8c-0.6,0.3-1-0.1-1.3-0.5c-0.2-0.3-0.3-0.6-0.4-0.9C-264.1,426.7-264,426.6-263,426.1z"/>
		<path class="st1" d="M-253.5,429.5c-0.1-2.2-2.1-3.1-2.6-4.9c0.7-0.5,0.7-0.4,1.2,0.3c0.5,0.8,1.2,1.6,1.8,2.4
			c0.5,0.7,0.7,1.4,0.5,2.2c0,0.3-0.3,0.6-0.6,0.7c-0.8,0.3-1.6,0.2-2.3-0.3c-0.3-0.2-0.3-0.7-0.4-1.1L-253.5,429.5z"/>
		<path class="st1" d="M-258.8,418.2c-0.9-1.3-1.7-2.5-2.5-3.8c-0.2-0.3-0.2-0.7-0.3-1c0-0.8,0.3-1.2,1.1-1.2c0.4,0,0.8,0,1.2,0.1
			c0.9,0.3,1,0.4,0.8,1.4l-2.1-0.7c-0.1,1.3,0.5,2,1.1,2.8l1.6,2L-258.8,418.2z"/>
		<path class="st1" d="M-260.5,420.4l-0.1,0.7c-1.3,0.1-2.6,0.3-3.8,0.4c-0.8,0-1.7-0.2-2.3-0.8c-0.1-0.1-0.2-0.5-0.1-0.7
			c0.4-0.6,0.8-1.2,1.3-1.7c0.6-0.6,0.9,0.2,1.1,0.3l-1.6,1.6C-264.1,421-262.3,420-260.5,420.4z"/>
		<path class="st1" d="M-265.1,424.7c1.9-0.2,2.9-2,4.7-2.6l0.3,0.8c-1.2,0.8-2.3,1.6-3.4,2.3c-0.5,0.3-1.1,0.4-1.6,0.4
			c-0.8,0-1-0.2-1-0.9c0-0.4,0-0.9,0.1-1.3c0.3-1,0.4-1,1.4-0.9l-0.6,2L-265.1,424.7z"/>
		<path class="st1" d="M-256.1,417.8l-1-0.1c0.3-1.8-0.6-3.5,0-5.2c0.3-1,0.9-1.3,1.8-0.8c0.2,0.1,0.4,0.3,0.6,0.4
			c1,0.7,1,1.1,0.3,2c-0.3-0.4-0.5-0.9-0.9-1.2c-0.6-0.6-1-0.4-1,0.4c0,0.9,0.1,1.7,0.1,2.6C-256.2,416.5-256.2,417.1-256.1,417.8z"
			/>
		<path class="st1" d="M-252,427.1l2.1-0.5c-0.3-1-1.1-1.3-1.8-1.5l-2.9-1.3l0.5-0.8c1,0.4,2.1,0.8,3,1.3c0.9,0.4,1.7,1,2,2
			c0.1,0.2,0,0.6-0.2,0.7c-0.4,0.3-0.8,0.6-1.3,0.8C-251.3,428.2-251.5,428-252,427.1z"/>
		<path class="st1" d="M-259.7,428.5l1.6,1.6c0.9-1.9-0.2-3.7,0.3-5.5l0.6,0.1c0.1,1,0.2,2,0.4,2.9c0.2,0.9,0,1.8-0.4,2.6
			c-0.3,0.7-0.8,0.9-1.5,0.5c-0.4-0.2-0.8-0.5-1.1-0.8C-260.4,429.2-260.4,429.2-259.7,428.5z"/>
		<path class="st1" d="M-262.1,415.3l-2.1,0.5c0.4,1,1.1,1.4,1.9,1.7l2.8,1.1l-0.6,0.8l-3-1.4c-0.8-0.4-1.7-0.8-2-1.8
			c-0.2-0.5,0-0.8,0.4-1c0.4-0.3,0.8-0.5,1.3-0.6C-262.5,414.3-262.4,414.4-262.1,415.3z"/>
		<path class="st1" d="M-253.6,422.2l0.2-1c1.3,0.2,2.6-0.6,3.8,0.7L-253.6,422.2z"/>
		<path class="st1" d="M-254.6,418.7l-0.6-0.6c0.5-0.9,1.4-1.5,1.8-2.4C-252.9,417-253.7,417.7-254.6,418.7z"/>
		<path class="st1" d="M-252.4,419.6l-1.2,0.7l-0.4-0.8C-252.8,418.5-252.6,418.8-252.4,419.6z"/>
		<path class="st2" d="M-255.6,421.2c0,0.9-0.6,1.5-1.5,1.5c-0.8,0-1.6-0.7-1.6-1.5c0-0.8,0.8-1.5,1.6-1.6
			C-256.2,419.7-255.6,420.3-255.6,421.2z"/>
		<g>
			<path class="st1" d="M-253.8,422.7c1.3,0.8,2.6,1.5,3.9,2.3c0.3,0.2,0.5,0.5,0.7,0.8c0.4,0.7,0.2,1.2-0.5,1.5
				c-0.4,0.2-0.8,0.4-1.1,0.4c-1,0.2-1.1,0.1-1.3-0.9l2.2-0.3c-0.4-1.2-1.3-1.6-2.2-2l-2.2-1.1L-253.8,422.7z"/>
			<path class="st1" d="M-253.3,420l-0.3-0.7c1.1-0.7,2.1-1.4,3.3-2c0.7-0.4,1.6-0.6,2.4-0.3c0.2,0.1,0.4,0.4,0.4,0.6
				c-0.1,0.7-0.2,1.4-0.4,2.1c-0.3,0.8-0.8,0.2-1.1,0.2l0.8-2.1C-250.4,417.9-251.5,419.6-253.3,420z"/>
			<path class="st1" d="M-251,414.2c-1.7,1-1.7,3.1-3.1,4.3l-0.6-0.6c0.7-1.2,1.3-2.4,2.1-3.5c0.3-0.4,0.8-0.8,1.3-1.1
				c0.6-0.4,1-0.3,1.3,0.4c0.2,0.4,0.4,0.8,0.4,1.2c0.2,1,0.1,1.1-0.8,1.3l-0.3-2H-251z"/>
			<path class="st1" d="M-249.7,423.8l1.7-1.4c-0.8-0.7-1.6-0.7-2.5-0.6l-3,0.2l0.2-1l3.3-0.1c0.9,0,1.8,0,2.6,0.7
				c0.4,0.4,0.3,0.7,0.1,1.1s-0.6,0.8-0.9,1.1C-248.9,424.5-249,424.5-249.7,423.8z"/>
		</g>
	</g>
</g>
</svg>
