<?xml version="1.0" encoding="utf-8"?>
<!-- Generator: Adobe Illustrator 19.0.0, SVG Export Plug-In . SVG Version: 6.00 Build 0)  -->
<svg version="1.1" id="Capa_1" xmlns="http://www.w3.org/2000/svg" xmlns:xlink="http://www.w3.org/1999/xlink" x="0px" y="0px"
	 viewBox="0 0 60 60" style="enable-background:new 0 0 60 60;" xml:space="preserve">
<style type="text/css">
	.st0{fill-rule:evenodd;clip-rule:evenodd;fill:#4ABD24;}
</style>
<g>
	<path class="st0" d="M53.6,24.6c0,0.6-0.5,1.3-1.1,1.5c-3.9,1.2-7.9,2.4-11.8,3.6c-0.2,0.1-0.5,0.1-0.8-0.1
		C32,25.5,24,21.3,16,17.2c-0.8-0.4-0.9-0.8-0.5-1.6l4-7.9C19.8,7,20.3,6.8,21,7.2l31.9,16.5C53.2,23.9,53.6,24.1,53.6,24.6z"/>
	<path class="st0" d="M48.1,29.1c-1,2.1-2,4-3,6c-0.3,0.6-0.8,0.7-1.4,0.3l-9.1-4.7l-4-2.1l-0.8,1.1c-1.8,2.7-3.7,5.3-5.6,8
		c-0.2,0.3-0.2,0.5-0.1,0.8c0.7,1.8,0.1,3.7-1.3,4.8c-1.5,1.1-3.5,1.1-5-0.1c-0.3-0.2-0.5-0.3-0.8-0.2c-1.8,0.3-3.5,0.6-5.3,0.9
		c-0.4,0.1-0.6,0.2-0.6,0.7c0,2,0,4,0,6c0,1.1-0.5,1.9-1.5,2C8.5,53,7.3,52.9,6,53V31.5c0.1,0,0.3,0,0.4,0c1,0,2,0,3.1,0.1
		c1.2,0.1,1.8,0.9,1.8,2.1v5.9v0.9l2.1-0.4c0.9-0.2,1.8-0.3,2.7-0.5c0.3,0,0.4-0.2,0.5-0.5c0.5-2,2.2-3.2,4.2-3.1
		c0.2,0,0.4-0.1,0.5-0.2c2-2.9,4-5.8,6-8.6c0,0,0.1-0.1,0.1-0.2l-2.5-1.3l-10.1-5.2c-1.1-0.6-1.2-0.9-0.6-2c0.1-0.1,0.1-0.2,0.2-0.4
		l3.6,1.8c7.4,3.8,14.8,7.7,22.3,11.5c0.2,0.1,0.5,0.1,0.8,0.1c2.3-0.7,4.5-1.5,6.8-2.2L48.1,29.1z"/>
	<polygon class="st0" points="54,29.8 51.1,35.5 47.6,33.8 50.5,28 	"/>
</g>
</svg>
