<?xml version="1.0" encoding="utf-8"?>
<!-- Generator: Adobe Illustrator 19.0.0, SVG Export Plug-In . SVG Version: 6.00 Build 0)  -->
<svg version="1.1" id="Capa_1" xmlns="http://www.w3.org/2000/svg" xmlns:xlink="http://www.w3.org/1999/xlink" x="0px" y="0px"
	 viewBox="0 0 60 60" style="enable-background:new 0 0 60 60;" xml:space="preserve">
<style type="text/css">
	
		.st0{fill-rule:evenodd;clip-rule:evenodd;fill:#FFFFFF;stroke:#4ABD24;stroke-width:2;stroke-linecap:round;stroke-linejoin:round;stroke-miterlimit:10;}
	
		.st1{fill-rule:evenodd;clip-rule:evenodd;fill:none;stroke:#4ABD24;stroke-width:2;stroke-linecap:round;stroke-linejoin:round;stroke-miterlimit:10;}
	.st2{fill-rule:evenodd;clip-rule:evenodd;fill:#4ABD24;}
</style>
<g>
	<rect x="5.9" y="9.1" class="st0" width="48.1" height="29.3"/>
	<rect x="5.9" y="33.1" class="st1" width="48.1" height="2.1"/>
	<path class="st2" d="M27.6,47.3c0,2,1.6,3.7,3.7,3.7s3.7-1.6,3.7-3.7c0-2-1.6-3.7-3.7-3.7S27.6,45.3,27.6,47.3z M29.7,47.3
		c0-0.9,0.7-1.6,1.6-1.6s1.6,0.7,1.6,1.6c0,0.9-0.7,1.6-1.6,1.6S29.7,48.2,29.7,47.3z"/>
	<rect x="29" y="38.3" class="st2" width="3.1" height="7.3"/>
	<rect x="2.8" y="9.1" class="st2" width="3.1" height="4.2"/>
	<rect x="54.1" y="9.1" class="st2" width="3.1" height="4.2"/>
</g>
</svg>
