<?xml version="1.0" encoding="utf-8"?>
<!-- Generator: Adobe Illustrator 19.0.0, SVG Export Plug-In . SVG Version: 6.00 Build 0)  -->
<svg version="1.1" id="Capa_1" xmlns="http://www.w3.org/2000/svg" xmlns:xlink="http://www.w3.org/1999/xlink" x="0px" y="0px"
	 viewBox="0 0 60 60" style="enable-background:new 0 0 60 60;" xml:space="preserve">
<style type="text/css">
	.st0{fill-rule:evenodd;clip-rule:evenodd;fill:none;}
	.st1{fill-rule:evenodd;clip-rule:evenodd;fill:#4ABD24;}
	.st2{fill-rule:evenodd;clip-rule:evenodd;fill:#DDE7ED;}
</style>
<g>
	<path class="st0" d="M8.8,36.7c-0.1-1.1,0.4-2.3-1.3-2.4c-1.4-0.1-1.6,0.8-1.5,1.8c0.1,1.1-0.4,2.6,1.3,2.8
		C8.9,39.1,8.7,37.7,8.8,36.7z M13.2,24.9c-0.9-0.6-1.8-1.2-2.7-1.8c-0.8-0.5-1.3,0.1-1.6,0.7c-0.8,1.7-1.5,3.5-2.2,5.3
		c-0.3,0.8,0,1.3,0.7,1.7C8.1,31,9,31.7,9.5,31C10.8,29.2,11.9,27.1,13.2,24.9z M15.5,22.7c1.6-0.8,3.1-1.8,4.7-2.4
		c1.4-0.6,1.5-1.3,0.9-2.6c-1.8-3.8-1.7-3.9-5.2-1.5c-0.8,0.6-1.6,1.1-2.3,1.8c-0.6,0.5-1.7,1-0.9,2C13.6,21,14.2,22.3,15.5,22.7z
		 M28.3,11.8c-0.3,0-1.4,0.1-2.4,0.3c-0.9,0.2-2.5,0.1-2.3,1.6c0.2,1.7-0.4,4.1,1.2,4.8c1.8,0.8,4.2,0.9,6.2,0.5
		c1.3-0.3,0.7-2.4,0.9-3.7C32.5,11.8,32.4,11.8,28.3,11.8z M49.6,39.1c0.9,0.1,1.8,0,2.6,0.2c2.3,0.5,2.6-0.7,2.4-2.5
		c-0.2-1.6,0.6-3.8-2.4-3.3c-2,0.3-4.1,0.4-6.1,0.3c-2.4-0.1-3,1-3,3.1c-0.1,2.3,1.5,1.8,2.7,2C47.1,39,48.3,39,49.6,39.1z
		 M37.6,13.3c-0.9,0-1.3,0.5-1.5,1.2c-0.5,1.2-1,2.5-1.6,3.7c-0.8,1.5-0.3,2.3,1.1,3.2c4.1,2.6,4.1,2.7,7.2-1.3
		c0.5-0.6,1-1.2,1.4-1.8c0.4-0.4,0.8-1,0.2-1.5C42.3,15.2,40,14.1,37.6,13.3z M52.8,27.7c-0.7-1.2-1.4-2.7-2.2-4.1
		c-2-3.3-2-3.3-5.1-1.1c-1.2,0.8-2.3,1.7-3.5,2.5c-1,0.6-1.2,1.2-0.6,2.3c2.2,4.7,2.2,4.7,7.2,3c1.1-0.4,2.2-0.7,3.3-1.2
		C52.3,28.9,52.8,28.7,52.8,27.7z M26.3,49c5.5-0.2,9.4-2.6,11.8-7.3c2.3-4.7,1.8-9.3-1.3-13.4c-3.2-4.2-7.6-5.7-12.8-4.9
		c-2,0.3-2.8,1.1-1.4,3.1c0.7,1,1.2,2.2,1.9,3.3c0.5,0.9,0,1.4-0.7,1.9c-0.9,0.6-1.4,0.3-1.9-0.6c-0.6-1.1-1.3-2.2-1.8-3.3
		c-0.9-2-1.8-2.2-3.2-0.5c-3.5,4.2-4.5,8.8-2.4,13.8C16.7,46.2,20.9,48.8,26.3,49z M3.6,30.1c0-9.5,0-19,0-28.5C3.6,0.4,3.7,0,5.2,0
		C21.8,0.1,38.4,0.1,55,0c1.3,0,1.4,0.4,1.4,1.5c0,19,0,38,0,56.9c0,1.2-0.1,1.5-1.5,1.5c-16.6-0.1-33.2-0.1-49.8,0
		c-1.5,0-1.6-0.4-1.6-1.7C3.7,48.9,3.6,39.5,3.6,30.1z"/>
	<path class="st1" d="M27.3,49c-5.4-0.2-9.6-2.8-11.8-8c-2.1-5-1.1-9.6,2.4-13.8c1.4-1.7,2.4-1.6,3.2,0.5c0.5,1.1,1.2,2.2,1.8,3.3
		c0.4,0.8,1,1.1,1.9,0.6c0.7-0.5,1.2-1,0.7-1.9c-0.6-1.1-1.1-2.3-1.9-3.3c-1.4-1.9-0.7-2.8,1.4-3.1c5.2-0.8,9.6,0.6,12.8,4.9
		c3.1,4.1,3.7,8.7,1.3,13.4C36.7,46.3,32.8,48.8,27.3,49z"/>
	<path class="st2" d="M52.8,27.7c0,1-0.5,1.3-1.1,1.5c-1.1,0.4-2.2,0.8-3.3,1.2c-5,1.7-5,1.7-7.2-3c-0.6-1.2-0.3-1.7,0.6-2.3
		c1.2-0.8,2.4-1.6,3.5-2.5c3.1-2.1,3.1-2.1,5.1,1.1C51.4,25,52.2,26.5,52.8,27.7z"/>
	<path class="st1" d="M37.6,13.3c2.3,0.8,4.7,1.9,6.7,3.6c0.6,0.5,0.2,1-0.2,1.5c-0.5,0.6-1,1.2-1.4,1.8c-3.1,3.9-3.1,3.9-7.2,1.3
		c-1.4-0.9-1.9-1.7-1.1-3.2c0.6-1.2,1.1-2.4,1.6-3.7C36.3,13.8,36.7,13.3,37.6,13.3z"/>
	<path class="st2" d="M50.6,39.1c-1.3-0.1-2.5-0.1-3.8-0.3c-1.2-0.2-2.8,0.3-2.7-2c0.1-2.1,0.7-3.2,3-3.1c2,0.1,4.1,0,6.1-0.3
		c3.1-0.5,2.3,1.7,2.4,3.3c0.2,1.9-0.1,3.1-2.4,2.5C52.3,39.1,51.4,39.2,50.6,39.1z"/>
	<path class="st1" d="M28.3,11.8c4.2-0.1,4.2-0.1,3.7,3.6c-0.2,1.3,0.4,3.4-0.9,3.7c-2,0.4-4.4,0.3-6.2-0.5c-1.6-0.7-1-3.1-1.2-4.8
		c-0.2-1.5,1.3-1.4,2.3-1.6C26.9,11.9,27.9,11.9,28.3,11.8z"/>
	<path class="st1" d="M16.5,22.7c-1.3-0.4-2-1.7-2.8-2.7c-0.9-1,0.3-1.5,0.9-2c0.7-0.7,1.5-1.3,2.3-1.8c3.5-2.4,3.4-2.3,5.2,1.5
		c0.6,1.3,0.6,2-0.9,2.6C19.6,20.9,18.1,21.8,16.5,22.7z"/>
	<path class="st1" d="M13.2,24.9c-1.4,2.3-2.4,4.3-3.7,6.1c-0.5,0.7-1.4,0-2.1-0.3c-0.7-0.3-1-0.9-0.7-1.7c0.7-1.8,1.4-3.6,2.2-5.3
		c0.3-0.6,0.8-1.2,1.6-0.7C11.5,23.6,12.3,24.3,13.2,24.9z"/>
	<path class="st1" d="M8.8,36.7c-0.1,1,0.2,2.3-1.5,2.2c-1.7-0.2-1.2-1.7-1.3-2.8c-0.2-1.1,0.1-1.9,1.5-1.8
		C9.2,34.4,8.7,35.7,8.8,36.7z"/>
</g>
</svg>
