<?xml version="1.0" encoding="utf-8"?>
<!-- Generator: Adobe Illustrator 19.0.0, SVG Export Plug-In . SVG Version: 6.00 Build 0)  -->
<svg version="1.1" id="Capa_1" xmlns="http://www.w3.org/2000/svg" xmlns:xlink="http://www.w3.org/1999/xlink" x="0px" y="0px"
	 viewBox="0 0 60 60" style="enable-background:new 0 0 60 60;" xml:space="preserve">
<style type="text/css">
	.st0{fill-rule:evenodd;clip-rule:evenodd;fill:#4ABD24;}
	.st1{fill-rule:evenodd;clip-rule:evenodd;fill:#FFFFFF;}
</style>
<g>
	<g>
		<path class="st0" d="M51.2,31.6V28c2-0.4,5.5,1.6,6.3,3.4c1,2.3,1.3,4.6,0.8,7.1c-0.3,1.3-0.3,2.6-0.3,3.9c0,1.3-0.3,2.2-1.7,2.3
			C54.8,44.8,54,44,54,42.6c0-1.8,0.1-3.7,0.4-5.5C54.8,34.6,54.5,32.5,51.2,31.6z"/>
		<rect x="1.5" y="19.8" class="st0" width="11.1" height="3.8"/>
		<polygon class="st0" points="13.7,35.9 13.7,39.8 8,39.8 2.5,39.8 2.5,35.9 		"/>
		<path class="st0" d="M21.5,30.2c0,3.4,0,6.7,0,10.1c0,0.8,0.1,1.6,1.1,1.6c1,0,1.2-0.7,1.2-1.6c0-6.7,0-13.4,0-20.1
			c0-0.9,0-1.8-1.1-1.8c-1.2,0-1.1,0.9-1.1,1.8V30.2z M45.5,23.7v12.2c-0.4,0-0.7,0.2-1.1,0.1c-3.9-0.3-7,1.8-9.5,4.4
			c-2.4,2.5-5.2,3.6-8.4,3.9c-2.3,0.2-4.6,0-7,0c-0.9,0-1.1-0.3-1.1-1.2c0-9.1,0-18.2,0-27.3c0-0.1,0.1-0.2,0.2-0.6
			c4.9,0.3,10.1-1.2,14.7,2.3c1.6,1.2,3.2,2.5,4.7,3.8c1.9,1.6,4.2,2.1,6.6,2.1C44.8,23.6,45.1,23.6,45.5,23.7z"/>
	</g>
	<path class="st1" d="M22.5,30.2v-10c0-0.9,0-1.8,1.1-1.8c1.1,0,1.1,1,1.1,1.8c0,6.7,0,13.4,0,20.1c0,0.9-0.2,1.6-1.2,1.6
		c-1.1,0-1.1-0.8-1.1-1.6C22.5,36.9,22.5,33.5,22.5,30.2z"/>
</g>
</svg>
