<?xml version="1.0" encoding="utf-8"?>
<!-- Generator: Adobe Illustrator 19.0.0, SVG Export Plug-In . SVG Version: 6.00 Build 0)  -->
<svg version="1.1" id="Capa_1" xmlns="http://www.w3.org/2000/svg" xmlns:xlink="http://www.w3.org/1999/xlink" x="0px" y="0px"
	 viewBox="0 0 60 60" style="enable-background:new 0 0 60 60;" xml:space="preserve">
<style type="text/css">
	.st0{fill-rule:evenodd;clip-rule:evenodd;fill:#4ABD24;}
	.st1{fill-rule:evenodd;clip-rule:evenodd;fill:#FFFFFF;}
</style>
<g>
	<g>
		<g>
			<path class="st0" d="M22.5,41.4h-2.4c-0.1-0.3-0.2-0.7-0.3-1c-1-1.8-1.9-3.7-3-5.5c-1.4-2.5-3.2-4.8-4.4-7.3
				c-2.5-5.3-1.2-10.4,1.8-15.2c3.8-6,9.5-8.4,16.5-8.4c6.8,0,11.9,3.2,15.3,8.5c3.2,4.9,4.3,10.5,1.2,16c-1.2,2.2-2.8,4.1-4.1,6.3
				c-1.2,2-2.2,4.2-3.5,6.6h-2c0.4-3.6,2.1-6.5,4.4-9.2c2.7-3.3,4.9-6.9,4.4-11.3c-0.8-6.7-5.4-12.6-12.6-14.4
				C27.6,5,22.4,6.9,18.1,11.4c-4.4,4.5-5.6,9.9-3.3,15.7c1,2.5,2.9,4.6,4.5,6.8C21,36.1,22,38.5,22.5,41.4z"/>
			<path class="st0" d="M21.4,46.5c0,1.8,0,3.5,0,5.1c0,1.2,0.7,1.9,1.9,1.9c3.7,0,7.4,0.1,11.1-0.1c0.7,0,1.8-1,1.9-1.6
				c0.3-1.7,0.1-3.5,0.1-5.3H21.4z M19.1,44.1H39c0,2.8,0.1,5.6,0,8.3c-0.1,2-2,3.5-4.2,3.5c-3.9,0.1-7.8,0.1-11.6,0
				c-2.2,0-3.8-1.4-3.9-3.6C18.9,49.7,19.1,46.9,19.1,44.1z"/>
			<path class="st0" d="M31.2,23.7c-0.1-1.2-0.7-1.9-2.1-2c-1.5-0.1-2.2,0.8-2.2,1.9c0,1.1,0.5,2.2,2,2.3C30.1,26,31.2,25,31.2,23.7
				z M27.8,28.4c-2.9-1.4-4-3.3-3.4-5.6c0.6-2.4,2.2-3.5,5-3.5c1.7,0,3.8,1.5,4.1,3.1c0.6,2.6-0.5,4.6-3.4,6v13.1h-2.3V28.4z"/>
			<path class="st1" d="M31.2,23.7c0,1.3-1.1,2.3-2.3,2.2c-1.4-0.1-2-1.1-2-2.3c0-1.2,0.7-2,2.2-1.9C30.5,21.8,31,22.5,31.2,23.7z"
				/>
		</g>
	</g>
</g>
</svg>
