<?xml version="1.0" encoding="utf-8"?>
<!-- Generator: Adobe Illustrator 19.0.0, SVG Export Plug-In . SVG Version: 6.00 Build 0)  -->
<svg version="1.1" id="Capa_1" xmlns="http://www.w3.org/2000/svg" xmlns:xlink="http://www.w3.org/1999/xlink" x="0px" y="0px"
	 viewBox="0 0 60 60" style="enable-background:new 0 0 60 60;" xml:space="preserve">
<style type="text/css">
	.st0{fill-rule:evenodd;clip-rule:evenodd;fill:#4ABD24;}
	.st1{fill-rule:evenodd;clip-rule:evenodd;fill:#FFFFFF;}
</style>
<g>
	<polygon class="st0" points="3,20 3,23.4 21.3,16.5 3,8.5 3,11.9 13.3,16.5 	"/>
	<polygon class="st0" points="57,20 57,23.4 38.7,16.5 57,8.5 57,11.9 46.7,16.5 	"/>
	<g>
		<g>
			<rect x="23.6" y="21.3" class="st0" width="13.8" height="23.4"/>
			<rect x="20.8" y="44.7" class="st0" width="18.3" height="6.5"/>
			<rect x="25.4" y="17.6" class="st0" width="9.2" height="3.7"/>
			<rect x="23.6" y="13.8" class="st0" width="13.8" height="3.7"/>
			<rect x="26.3" y="12.9" class="st0" width="7.3" height="1.9"/>
		</g>
		<path class="st0" d="M42.4,51.5h3.7c0,0-0.5-7.8,2.8-11.2C48.8,40.3,42.3,45.9,42.4,51.5z"/>
		<path class="st1" d="M27.8,51.5h3.7c0,0-0.5-7.8,2.7-11.2C34.2,40.3,27.6,45.9,27.8,51.5z"/>
		<path class="st0" d="M18.6,51.5h-3.7c0,0,0.4-7.8-2.8-11.2C12.2,40.3,18.7,45.9,18.6,51.5z"/>
	</g>
</g>
</svg>
