<?xml version="1.0" encoding="utf-8"?>
<!-- Generator: Adobe Illustrator 19.0.0, SVG Export Plug-In . SVG Version: 6.00 Build 0)  -->
<svg version="1.1" id="Capa_1" xmlns="http://www.w3.org/2000/svg" xmlns:xlink="http://www.w3.org/1999/xlink" x="0px" y="0px"
	 viewBox="0 0 60 60" style="enable-background:new 0 0 60 60;" xml:space="preserve">
<style type="text/css">
	.st0{fill-rule:evenodd;clip-rule:evenodd;fill:#4ABD24;}
</style>
<g>
	<g>
		<path class="st0" d="M12.6,26.4c-0.4-0.7-1.1-1.1-1.9-1.1c-0.8,0-1.6,0.5-1.9,1.1H8.5v1v8v4.8h5.7h2.3h19.7v-5.7v-6.5v-7.8v-0.1
			c0-1.2-1-2.1-2.2-2.1s-2.2,1-2.2,2.1v0.1v7.8h-1.1V15.3v-0.6h-0.1c-0.3-0.9-1.1-1.6-2.1-1.6c-1,0-1.9,0.7-2.1,1.6h-0.1v0.6v12.6
			h-1.8V12.7v-0.1c0-1.2-1-2.1-2.2-2.1c-1.2,0-2.2,1-2.2,2.1v0.1v15.2h-1.5V17.5v-0.1c0-1.1-1-2.1-2.2-2.1c-1.2,0-2.2,0.9-2.2,2.1
			v0.1v10.4v7.4h-1.3v-8v-1H12.6z"/>
		<path class="st0" d="M8.5,40v1.7c0,0,0,1,0.6,1.4l5.7,4.1l0.2,2.2h19l2.1-8.7v-0.9L8.5,40z"/>
	</g>
	<path class="st0" d="M37.9,10.5c0,0,12.4,12,3.5,23.7"/>
	<path class="st0" d="M44.8,10.5c0,0,12.5,12,3.5,23.7"/>
</g>
</svg>
