<?xml version="1.0" encoding="utf-8"?>
<!-- Generator: Adobe Illustrator 19.0.0, SVG Export Plug-In . SVG Version: 6.00 Build 0)  -->
<svg version="1.1" id="Capa_1" xmlns="http://www.w3.org/2000/svg" xmlns:xlink="http://www.w3.org/1999/xlink" x="0px" y="0px"
	 viewBox="0 0 60 60" style="enable-background:new 0 0 60 60;" xml:space="preserve">
<style type="text/css">
	.st0{fill-rule:evenodd;clip-rule:evenodd;fill:#FFFFFF;}
	.st1{fill-rule:evenodd;clip-rule:evenodd;fill:#4ABD24;}
</style>
<g>
	<path class="st0" d="M5.2,11.7v32.1h16.4v3c-5.4,0.8-5.4,0.8-4.6,3.2h25.6c0.7-5-3.7-1.6-5.1-3.7l0.1-2.6H56V11.7H5.2z M58,52H2V8
		h56V52z"/>
	<path class="st1" d="M25.5,44.1l0,0.8h8.2v-0.8H25.5z M8.6,40h43.9V15.1H8.6V40z M5.2,11.7H56v32.1H37.6l-0.1,2.6
		c1.3,2.1,5.8-1.3,5.1,3.7H17c-0.8-2.3-0.8-2.3,4.6-3.2v-3H5.2V11.7z"/>
	<polygon class="st0" points="24.5,44.1 32.8,44.1 32.8,45 24.5,45 	"/>
</g>
</svg>
