<?xml version="1.0" encoding="utf-8"?>
<!-- Generator: Adobe Illustrator 19.0.0, SVG Export Plug-In . SVG Version: 6.00 Build 0)  -->
<svg version="1.1" id="Capa_1" xmlns="http://www.w3.org/2000/svg" xmlns:xlink="http://www.w3.org/1999/xlink" x="0px" y="0px"
	 viewBox="0 0 60 60" style="enable-background:new 0 0 60 60;" xml:space="preserve">
<style type="text/css">
	.st0{fill-rule:evenodd;clip-rule:evenodd;fill:#4ABD24;}
</style>
<g>
	<path class="st0" d="M33.6,29.9c0-2.1-1.6-3.7-3.7-3.7c-2,0-3.9,1.8-3.9,3.8c0,2,1.9,3.7,4,3.7C32.1,33.7,33.6,32.1,33.6,29.9z
		 M29.9,35.9c-3.5,0.4-6.2-2.8-6.2-5.8c0-3.3,2.5-6.1,6.2-6.2c3.5-0.1,6,2.5,6.1,6C36.1,33.2,33.6,36.2,29.9,35.9z"/>
	<path class="st0" d="M15.4,42l1,5.3c2.3-0.8,3.1-2.5,3.8-4.1c1.1-2.4,2.1-4.8,3.2-7.3l2,1.3c-1.2,2.8-2.3,5.4-3.5,8
		c-0.9,1.9-2.3,3.4-4.3,4.3c-1.6,0.8-2.3-0.4-3.1-1.3c-0.5-0.6-0.8-1.5-1.1-2.3C12.6,43.5,12.8,43.1,15.4,42z"/>
	<path class="st0" d="M39.8,50.3c-0.3-5.5-5.2-7.7-6.4-12c1.8-1.2,1.8-1.1,3,0.7c1.3,2.1,2.9,4,4.3,5.9c1.2,1.6,1.8,3.4,1.3,5.4
		c-0.1,0.6-0.8,1.5-1.4,1.7c-2,0.7-4,0.4-5.7-0.8c-0.6-0.4-0.6-1.7-1-2.8L39.8,50.3z"/>
	<path class="st0" d="M25.5,22.5c-2.1-3.2-4.3-6.3-6.3-9.4c-0.5-0.7-0.6-1.7-0.6-2.6c-0.1-2,0.8-2.9,2.8-2.8c1,0,2.1,0,3,0.3
		c2.3,0.7,2.5,1.1,2,3.4l-5.2-1.8c-0.3,3.1,1.3,5,2.7,6.9l3.8,4.9L25.5,22.5z"/>
	<path class="st0" d="M21.4,28l-0.2,1.8c-3.2,0.3-6.3,0.8-9.4,0.9c-2.1,0.1-4.2-0.4-5.7-2c-0.4-0.4-0.6-1.4-0.3-1.7
		c0.9-1.5,2-3,3.2-4.2c1.5-1.5,2.1,0.4,2.8,0.8l-4.1,3.9C12.6,29.5,17,26.9,21.4,28z"/>
	<path class="st0" d="M10,38.6c4.8-0.4,7.2-5,11.6-6.3l0.7,2c-2.9,1.9-5.6,3.9-8.4,5.6c-1.1,0.7-2.6,0.9-4,1C8,41,7.4,40.4,7.3,38.6
		c-0.1-1,0-2.1,0.3-3.1c0.7-2.4,0.9-2.5,3.3-2.1l-1.6,4.9L10,38.6z"/>
	<path class="st0" d="M32.2,21.5l-2.5-0.2c0.6-4.3-1.5-8.5,0-12.8c0.8-2.3,2.2-3.1,4.3-1.9c0.5,0.3,1.1,0.6,1.6,1
		c2.4,1.7,2.5,2.7,0.7,4.9c-0.7-1-1.2-2.2-2.1-3c-1.6-1.4-2.4-1-2.5,1c-0.1,2.1,0.2,4.2,0.4,6.3C32.1,18.3,32.1,19.9,32.2,21.5z"/>
	<path class="st0" d="M42.3,44.4l5.3-1.1c-0.8-2.4-2.6-3.1-4.3-3.8c-2.3-1-4.7-2-7.2-3.1l1.3-1.9c2.5,1.1,5.1,2,7.5,3.1
		c2.2,1,4.2,2.4,5,4.8c0.2,0.5,0,1.5-0.4,1.8c-0.9,0.8-2,1.5-3.1,2C44.1,47.1,43.6,46.8,42.3,44.4z"/>
	<path class="st0" d="M24.4,47.9l4,4c2.1-4.8-0.5-9.2,0.6-13.6l1.6,0.3c0.3,2.5,0.5,4.9,1,7.2c0.5,2.3,0,4.4-0.9,6.5
		c-0.8,1.8-2,2.2-3.7,1.1c-0.9-0.6-1.9-1.2-2.7-2C22.7,49.6,22.8,49.6,24.4,47.9z"/>
	<path class="st0" d="M17.4,15.4l-5.3,1.2c1,2.4,2.8,3.4,4.8,4.2l7,2.8l-1.6,2c-2.5-1.2-5-2.3-7.4-3.4c-2.1-1-4.2-2-5-4.4
		c-0.4-1.2,0-2,0.9-2.6c1-0.6,2.1-1.1,3.2-1.5C16.4,12.9,16.7,13.1,17.4,15.4z"/>
	<path class="st0" d="M39.4,32.3l0.4-2.4c3.1,0.5,6.5-1.4,9.4,1.6L39.4,32.3z"/>
	<path class="st0" d="M36,23.8l-1.6-1.4c1.1-2.3,3.4-3.8,4.4-6C40.3,19.5,38.2,21.3,36,23.8z"/>
	<path class="st0" d="M41.3,26.1l-2.9,1.6l-1-1.9C40.5,23.2,40.9,24,41.3,26.1z"/>
	<g>
		<path class="st0" d="M37.8,33.6c3.3,1.9,6.5,3.6,9.6,5.6c0.7,0.4,1.2,1.3,1.7,2c0.9,1.7,0.5,2.9-1.3,3.8c-0.9,0.4-1.8,0.9-2.8,1
			c-2.3,0.4-2.7,0.2-3.3-2.1l5.4-0.7c-1.1-2.9-3.3-3.9-5.4-4.9l-5.5-2.7L37.8,33.6z"/>
		<path class="st0" d="M39.1,26.9l-0.6-1.7c2.7-1.7,5.3-3.5,8-5c1.8-1,3.9-1.5,6-0.7c0.5,0.2,1.1,0.9,1.1,1.4
			c-0.2,1.7-0.5,3.5-1.1,5.1c-0.7,2-2,0.6-2.8,0.6l2-5.2C46.4,21.7,43.6,26,39.1,26.9z"/>
		<path class="st0" d="M44.8,12.5c-4.1,2.4-4.2,7.6-7.7,10.7l-1.5-1.4c1.7-2.9,3.3-5.9,5.1-8.7c0.7-1.1,2-1.9,3.2-2.6
			c1.6-0.9,2.4-0.7,3.3,0.9c0.5,0.9,0.9,1.9,1.1,2.9c0.4,2.5,0.3,2.6-2.1,3.3l-0.7-5L44.8,12.5z"/>
		<path class="st0" d="M48.1,36.3l4.2-3.4c-2-1.7-4-1.7-6-1.6L38.8,32l0.5-2.4c2.8-0.1,5.4-0.2,8-0.2c2.3-0.1,4.5-0.1,6.3,1.7
			c0.9,0.9,0.8,1.8,0.3,2.7c-0.6,1-1.4,1.9-2.2,2.7C50,38.1,49.8,38.1,48.1,36.3z"/>
	</g>
</g>
</svg>
