<?xml version="1.0" encoding="utf-8"?>
<!-- Generator: Adobe Illustrator 19.0.0, SVG Export Plug-In . SVG Version: 6.00 Build 0)  -->
<svg version="1.1" id="Capa_1" xmlns="http://www.w3.org/2000/svg" xmlns:xlink="http://www.w3.org/1999/xlink" x="0px" y="0px"
	 viewBox="0 0 271.3 79.3" style="enable-background:new 0 0 271.3 79.3;" xml:space="preserve">
<style type="text/css">
	.st0{fill-rule:evenodd;clip-rule:evenodd;fill:none;stroke:#C1F0B2;stroke-width:2;stroke-linecap:square;stroke-miterlimit:10;}
	.st1{fill-rule:evenodd;clip-rule:evenodd;fill:none;stroke:#C1F0B2;stroke-width:10;stroke-linecap:square;stroke-miterlimit:10;}
	.st2{fill-rule:evenodd;clip-rule:evenodd;fill:#4ABD24;}
</style>
<rect x="47.7" y="2.3" class="st0" width="222" height="50"/>
<polyline class="st1" points="6.7,73.3 6.7,23.3 42.7,23.3 "/>
<g>
	<path class="st2" d="M72.9,22.3h2.9c0.8,0,1.3,0.3,1.6,0.8c0.3,0.5,0.4,1.2,0.2,2.1c-0.1,0.8-0.5,1.4-1,2c-0.5,0.5-1.1,0.8-1.9,0.8
		h-2.9L72.9,22.3z M74.4,29.5c1.5,0,2.7-0.4,3.7-1.1c1-0.8,1.6-1.9,1.9-3.3c0.3-1.3,0-2.3-0.7-3.2c-0.7-0.8-1.8-1.2-3.1-1.2h-5.3
		l-2.8,14.4h2.3l1.1-5.6H74.4z"/>
	<polygon class="st2" points="97.3,20.7 94.9,20.7 92.1,35.1 100.5,35.1 100.8,33.5 94.8,33.5 	"/>
	<path class="st2" d="M121.4,23.8L121.4,23.8l0.7,5.8h-3.8L121.4,23.8z M122.8,35.1h2.4l-1.9-14.4H121l-7.7,14.4h2.3l1.7-4h5
		L122.8,35.1z"/>
	<polygon class="st2" points="150.4,20.7 140.2,20.7 139.8,22.3 143.7,22.3 141.3,35.1 143.6,35.1 146.1,22.3 150,22.3 	"/>
	<polygon class="st2" points="165.9,20.7 163.3,20.7 166,29.9 164.9,35.1 167.3,35.1 168.2,30.1 174.7,20.7 172.1,20.7 167.7,27.5 
		167.6,27.5 	"/>
	<path class="st2" d="M190.5,22.3h2.9c0.8,0,1.3,0.3,1.6,0.8c0.3,0.5,0.4,1.2,0.2,2.1c-0.1,0.8-0.5,1.4-1,2
		c-0.5,0.5-1.1,0.8-1.9,0.8h-2.9L190.5,22.3z M192,29.5c1.5,0,2.7-0.4,3.7-1.1c1-0.8,1.6-1.9,1.9-3.3c0.3-1.3,0-2.3-0.7-3.2
		c-0.7-0.8-1.8-1.2-3.1-1.2h-5.3l-2.8,14.4h2.3l1.1-5.6H192z"/>
	<path class="st2" d="M220.3,20.7l-1.9,9.7c-0.2,1-0.6,1.8-1.3,2.3c-0.7,0.5-1.4,0.8-2.2,0.8c-0.9,0-1.5-0.2-1.9-0.7
		c-0.4-0.5-0.5-1.3-0.3-2.4l1.9-9.7h-2.3l-1.9,9.5c-0.3,1.5-0.1,2.8,0.8,3.6c0.8,0.9,1.9,1.3,3.4,1.3c1.6,0,2.9-0.4,4.1-1.2
		c1.1-0.8,1.8-2,2.2-3.7l1.9-9.5H220.3z"/>
	<path class="st2" d="M241.4,33c-0.5,0.3-1,0.5-1.6,0.5c-0.9,0-1.6-0.2-2.1-0.6c-0.5-0.4-0.7-1.1-0.5-2.2H235l0,0.1
		c-0.3,1.5,0,2.5,0.9,3.2c0.9,0.7,2.1,1.1,3.6,1.1c1.4,0,2.5-0.3,3.4-0.8c0.9-0.6,1.5-1.4,1.8-2.5c0.2-1.2,0.1-2.1-0.5-2.8
		c-0.6-0.7-1.6-1.2-3-1.7c-1.1-0.5-1.9-0.9-2.2-1.3c-0.3-0.4-0.4-1-0.3-1.8c0.1-0.5,0.4-1,0.8-1.3c0.4-0.4,0.9-0.5,1.5-0.5
		c0.8,0,1.4,0.3,1.8,0.8c0.4,0.5,0.5,1.3,0.4,2.2h2.3l0-0.1c0.3-1.4,0-2.5-0.8-3.3c-0.8-0.8-1.9-1.2-3.3-1.2c-1.3,0-2.4,0.3-3.3,0.9
		c-0.9,0.6-1.5,1.5-1.7,2.6c-0.3,1.2-0.1,2.2,0.6,2.9c0.6,0.7,1.7,1.3,3.1,1.8c1,0.4,1.7,0.8,2,1.2c0.3,0.4,0.4,1,0.3,1.7
		C242.2,32.3,241.9,32.7,241.4,33z"/>
</g>
</svg>
